<svg width="142" height="113" viewBox="0 0 142 113" fill="none" xmlns="http://www.w3.org/2000/svg">
<g opacity="0.3">
<path opacity="0.3" d="M11.9871 16.1872C21.8958 5.44519 36.8895 0 56.5444 0H63.6069V19.9092L57.9287 21.0462C48.253 22.9814 41.5225 26.7881 37.9206 32.3745C36.0412 35.384 34.9753 38.8299 34.8272 42.375H56.5444C58.4175 42.375 60.2139 43.1191 61.5383 44.4436C62.8628 45.768 63.6069 47.5644 63.6069 49.4375V98.875C63.6069 106.665 57.2718 113 49.4819 113H7.10691C5.23382 113 3.43744 112.256 2.11297 110.931C0.78849 109.607 0.0444078 107.811 0.0444078 105.938V70.625L0.0655955 50.0096C0.00203297 49.2256 -1.33984 30.6512 11.9871 16.1872ZM127.169 113H84.7944C82.9213 113 81.1249 112.256 79.8005 110.931C78.476 109.607 77.7319 107.811 77.7319 105.938V70.625L77.7531 50.0096C77.6895 49.2256 76.3477 30.6512 89.6746 16.1872C99.5833 5.44519 114.577 0 134.232 0H141.294V19.9092L135.616 21.0462C125.941 22.9814 119.21 26.7881 115.608 32.3745C113.729 35.384 112.663 38.8299 112.515 42.375H134.232C136.105 42.375 137.901 43.1191 139.226 44.4436C140.55 45.768 141.294 47.5644 141.294 49.4375V98.875C141.294 106.665 134.959 113 127.169 113Z" fill="#44533C"/>
</g>
</svg>
