<svg width="1440" height="600" viewBox="0 0 1440 600" fill="none" xmlns="http://www.w3.org/2000/svg">
<path d="M360 600L360 1.54972e-05" stroke="url(#paint0_linear_2163_1983)" stroke-opacity="0.3"/>
<path d="M900 600L900 1.54972e-05" stroke="url(#paint1_linear_2163_1983)" stroke-opacity="0.3"/>
<path d="M120 600L120 1.54972e-05" stroke="url(#paint2_linear_2163_1983)" stroke-opacity="0.3"/>
<path d="M660 600L660 1.54972e-05" stroke="url(#paint3_linear_2163_1983)" stroke-opacity="0.3"/>
<path d="M1200 600L1200 1.54972e-05" stroke="url(#paint4_linear_2163_1983)" stroke-opacity="0.3"/>
<path d="M240 600L240 1.54972e-05" stroke="url(#paint5_linear_2163_1983)" stroke-opacity="0.3"/>
<path d="M780 600L780 1.54972e-05" stroke="url(#paint6_linear_2163_1983)" stroke-opacity="0.3"/>
<path d="M1320 600L1320 1.54972e-05" stroke="url(#paint7_linear_2163_1983)" stroke-opacity="0.3"/>
<path d="M480 600L480 1.54972e-05" stroke="url(#paint8_linear_2163_1983)" stroke-opacity="0.3"/>
<path d="M1020 600L1020 1.54972e-05" stroke="url(#paint9_linear_2163_1983)" stroke-opacity="0.3"/>
<path d="M300 600L300 1.54972e-05" stroke="url(#paint10_linear_2163_1983)" stroke-opacity="0.3"/>
<path d="M840 600L840 1.54972e-05" stroke="url(#paint11_linear_2163_1983)" stroke-opacity="0.3"/>
<path d="M1380 600L1380 1.54972e-05" stroke="url(#paint12_linear_2163_1983)" stroke-opacity="0.3"/>
<path d="M540 600L540 1.54972e-05" stroke="url(#paint13_linear_2163_1983)" stroke-opacity="0.3"/>
<path d="M1080 600L1080 1.54972e-05" stroke="url(#paint14_linear_2163_1983)" stroke-opacity="0.3"/>
<path d="M60 600L60.0001 1.54972e-05" stroke="url(#paint15_linear_2163_1983)" stroke-opacity="0.3"/>
<path d="M600 600L600 1.54972e-05" stroke="url(#paint16_linear_2163_1983)" stroke-opacity="0.3"/>
<path d="M1140 600L1140 1.54972e-05" stroke="url(#paint17_linear_2163_1983)" stroke-opacity="0.3"/>
<path d="M180 600L180 1.54972e-05" stroke="url(#paint18_linear_2163_1983)" stroke-opacity="0.3"/>
<path d="M720 600L720 1.54972e-05" stroke="url(#paint19_linear_2163_1983)" stroke-opacity="0.3"/>
<path d="M1260 600L1260 1.54972e-05" stroke="url(#paint20_linear_2163_1983)" stroke-opacity="0.3"/>
<path d="M1440 180L3.71933e-05 180" stroke="url(#paint21_linear_2163_1983)" stroke-opacity="0.3"/>
<path d="M1440 460L3.71933e-05 460" stroke="url(#paint22_linear_2163_1983)" stroke-opacity="0.3"/>
<path d="M1440 320L3.71933e-05 320" stroke="url(#paint23_linear_2163_1983)" stroke-opacity="0.3"/>
<path d="M1440 40L3.71933e-05 39.9999" stroke="url(#paint24_linear_2163_1983)" stroke-opacity="0.3"/>
<path d="M1440 250L3.71933e-05 250" stroke="url(#paint25_linear_2163_1983)" stroke-opacity="0.3"/>
<path d="M1440 530L3.71933e-05 530" stroke="url(#paint26_linear_2163_1983)" stroke-opacity="0.3"/>
<path d="M1440 390L3.71933e-05 390" stroke="url(#paint27_linear_2163_1983)" stroke-opacity="0.3"/>
<path d="M1440 110L3.71933e-05 110" stroke="url(#paint28_linear_2163_1983)" stroke-opacity="0.3"/>
<path d="M420 600L420 1.54972e-05" stroke="url(#paint29_linear_2163_1983)" stroke-opacity="0.3"/>
<path d="M960 600L960 1.54972e-05" stroke="url(#paint30_linear_2163_1983)" stroke-opacity="0.3"/>
<path opacity="0.5" d="M180 180H240V250H180V180Z" fill="url(#paint31_linear_2163_1983)"/>
<path opacity="0.5" d="M0 390H60V460H0V390Z" fill="url(#paint32_linear_2163_1983)"/>
<path opacity="0.5" d="M600 110H660V180H600V110Z" fill="url(#paint33_linear_2163_1983)"/>
<path opacity="0.5" d="M1020 250H1080V320H1020V250Z" fill="url(#paint34_linear_2163_1983)"/>
<path opacity="0.5" d="M360 460H420V530H360V460Z" fill="url(#paint35_linear_2163_1983)"/>
<rect opacity="0.5" x="780" y="250" width="60" height="70" fill="url(#paint36_linear_2163_1983)"/>
<rect opacity="0.5" x="780" y="460" width="60" height="70" fill="url(#paint37_linear_2163_1983)"/>
<rect opacity="0.5" x="1320" y="40" width="60" height="70" fill="url(#paint38_linear_2163_1983)"/>
<defs>
<linearGradient id="paint0_linear_2163_1983" x1="359.5" y1="600" x2="359.5" y2="-1.92881e-08" gradientUnits="userSpaceOnUse">
<stop stop-opacity="0"/>
<stop offset="0.322115" stop-opacity="0.16"/>
<stop offset="0.663462" stop-opacity="0.16"/>
<stop offset="1" stop-opacity="0"/>
</linearGradient>
<linearGradient id="paint1_linear_2163_1983" x1="899.5" y1="600" x2="899.5" y2="-1.92881e-08" gradientUnits="userSpaceOnUse">
<stop stop-opacity="0"/>
<stop offset="0.322115" stop-opacity="0.16"/>
<stop offset="0.663462" stop-opacity="0.16"/>
<stop offset="1" stop-opacity="0"/>
</linearGradient>
<linearGradient id="paint2_linear_2163_1983" x1="119.5" y1="600" x2="119.5" y2="-1.92881e-08" gradientUnits="userSpaceOnUse">
<stop stop-opacity="0"/>
<stop offset="0.322115" stop-opacity="0.16"/>
<stop offset="0.663462" stop-opacity="0.16"/>
<stop offset="1" stop-opacity="0"/>
</linearGradient>
<linearGradient id="paint3_linear_2163_1983" x1="659.5" y1="600" x2="659.5" y2="-1.92881e-08" gradientUnits="userSpaceOnUse">
<stop stop-opacity="0"/>
<stop offset="0.322115" stop-opacity="0.16"/>
<stop offset="0.663462" stop-opacity="0.16"/>
<stop offset="1" stop-opacity="0"/>
</linearGradient>
<linearGradient id="paint4_linear_2163_1983" x1="1199.5" y1="600" x2="1199.5" y2="-1.92881e-08" gradientUnits="userSpaceOnUse">
<stop stop-opacity="0"/>
<stop offset="0.322115" stop-opacity="0.16"/>
<stop offset="0.663462" stop-opacity="0.16"/>
<stop offset="1" stop-opacity="0"/>
</linearGradient>
<linearGradient id="paint5_linear_2163_1983" x1="239.5" y1="600" x2="239.5" y2="-1.92881e-08" gradientUnits="userSpaceOnUse">
<stop stop-opacity="0"/>
<stop offset="0.322115" stop-opacity="0.16"/>
<stop offset="0.663462" stop-opacity="0.16"/>
<stop offset="1" stop-opacity="0"/>
</linearGradient>
<linearGradient id="paint6_linear_2163_1983" x1="779.5" y1="600" x2="779.5" y2="-1.92881e-08" gradientUnits="userSpaceOnUse">
<stop stop-opacity="0"/>
<stop offset="0.322115" stop-opacity="0.16"/>
<stop offset="0.663462" stop-opacity="0.16"/>
<stop offset="1" stop-opacity="0"/>
</linearGradient>
<linearGradient id="paint7_linear_2163_1983" x1="1319.5" y1="600" x2="1319.5" y2="-1.92881e-08" gradientUnits="userSpaceOnUse">
<stop stop-opacity="0"/>
<stop offset="0.322115" stop-opacity="0.16"/>
<stop offset="0.663462" stop-opacity="0.16"/>
<stop offset="1" stop-opacity="0"/>
</linearGradient>
<linearGradient id="paint8_linear_2163_1983" x1="479.5" y1="600" x2="479.5" y2="-1.92881e-08" gradientUnits="userSpaceOnUse">
<stop stop-opacity="0"/>
<stop offset="0.322115" stop-opacity="0.16"/>
<stop offset="0.663462" stop-opacity="0.16"/>
<stop offset="1" stop-opacity="0"/>
</linearGradient>
<linearGradient id="paint9_linear_2163_1983" x1="1019.5" y1="600" x2="1019.5" y2="-1.92881e-08" gradientUnits="userSpaceOnUse">
<stop stop-opacity="0"/>
<stop offset="0.322115" stop-opacity="0.16"/>
<stop offset="0.663462" stop-opacity="0.16"/>
<stop offset="1" stop-opacity="0"/>
</linearGradient>
<linearGradient id="paint10_linear_2163_1983" x1="299.5" y1="600" x2="299.5" y2="-1.92881e-08" gradientUnits="userSpaceOnUse">
<stop stop-opacity="0"/>
<stop offset="0.322115" stop-opacity="0.16"/>
<stop offset="0.663462" stop-opacity="0.16"/>
<stop offset="1" stop-opacity="0"/>
</linearGradient>
<linearGradient id="paint11_linear_2163_1983" x1="839.5" y1="600" x2="839.5" y2="-1.92881e-08" gradientUnits="userSpaceOnUse">
<stop stop-opacity="0"/>
<stop offset="0.322115" stop-opacity="0.16"/>
<stop offset="0.663462" stop-opacity="0.16"/>
<stop offset="1" stop-opacity="0"/>
</linearGradient>
<linearGradient id="paint12_linear_2163_1983" x1="1379.5" y1="600" x2="1379.5" y2="-1.92881e-08" gradientUnits="userSpaceOnUse">
<stop stop-opacity="0"/>
<stop offset="0.322115" stop-opacity="0.16"/>
<stop offset="0.663462" stop-opacity="0.16"/>
<stop offset="1" stop-opacity="0"/>
</linearGradient>
<linearGradient id="paint13_linear_2163_1983" x1="539.5" y1="600" x2="539.5" y2="-1.92881e-08" gradientUnits="userSpaceOnUse">
<stop stop-opacity="0"/>
<stop offset="0.322115" stop-opacity="0.16"/>
<stop offset="0.663462" stop-opacity="0.16"/>
<stop offset="1" stop-opacity="0"/>
</linearGradient>
<linearGradient id="paint14_linear_2163_1983" x1="1079.5" y1="600" x2="1079.5" y2="-1.92881e-08" gradientUnits="userSpaceOnUse">
<stop stop-opacity="0"/>
<stop offset="0.322115" stop-opacity="0.16"/>
<stop offset="0.663462" stop-opacity="0.16"/>
<stop offset="1" stop-opacity="0"/>
</linearGradient>
<linearGradient id="paint15_linear_2163_1983" x1="59.5" y1="600" x2="59.5" y2="-1.92881e-08" gradientUnits="userSpaceOnUse">
<stop stop-opacity="0"/>
<stop offset="0.322115" stop-opacity="0.16"/>
<stop offset="0.663462" stop-opacity="0.16"/>
<stop offset="1" stop-opacity="0"/>
</linearGradient>
<linearGradient id="paint16_linear_2163_1983" x1="599.5" y1="600" x2="599.5" y2="-1.92881e-08" gradientUnits="userSpaceOnUse">
<stop stop-opacity="0"/>
<stop offset="0.322115" stop-opacity="0.16"/>
<stop offset="0.663462" stop-opacity="0.16"/>
<stop offset="1" stop-opacity="0"/>
</linearGradient>
<linearGradient id="paint17_linear_2163_1983" x1="1139.5" y1="600" x2="1139.5" y2="-1.92881e-08" gradientUnits="userSpaceOnUse">
<stop stop-opacity="0"/>
<stop offset="0.322115" stop-opacity="0.16"/>
<stop offset="0.663462" stop-opacity="0.16"/>
<stop offset="1" stop-opacity="0"/>
</linearGradient>
<linearGradient id="paint18_linear_2163_1983" x1="179.5" y1="600" x2="179.5" y2="-1.92881e-08" gradientUnits="userSpaceOnUse">
<stop stop-opacity="0"/>
<stop offset="0.322115" stop-opacity="0.16"/>
<stop offset="0.663462" stop-opacity="0.16"/>
<stop offset="1" stop-opacity="0"/>
</linearGradient>
<linearGradient id="paint19_linear_2163_1983" x1="719.5" y1="600" x2="719.5" y2="-1.92881e-08" gradientUnits="userSpaceOnUse">
<stop stop-opacity="0"/>
<stop offset="0.322115" stop-opacity="0.16"/>
<stop offset="0.663462" stop-opacity="0.16"/>
<stop offset="1" stop-opacity="0"/>
</linearGradient>
<linearGradient id="paint20_linear_2163_1983" x1="1259.5" y1="600" x2="1259.5" y2="-1.92881e-08" gradientUnits="userSpaceOnUse">
<stop stop-opacity="0"/>
<stop offset="0.322115" stop-opacity="0.16"/>
<stop offset="0.663462" stop-opacity="0.16"/>
<stop offset="1" stop-opacity="0"/>
</linearGradient>
<linearGradient id="paint21_linear_2163_1983" x1="1440" y1="180.5" x2="-2.24985e-08" y2="180.5" gradientUnits="userSpaceOnUse">
<stop stop-opacity="0"/>
<stop offset="0.322115" stop-opacity="0.16"/>
<stop offset="0.663462" stop-opacity="0.16"/>
<stop offset="1" stop-opacity="0"/>
</linearGradient>
<linearGradient id="paint22_linear_2163_1983" x1="1440" y1="460.5" x2="-2.24985e-08" y2="460.5" gradientUnits="userSpaceOnUse">
<stop stop-opacity="0"/>
<stop offset="0.322115" stop-opacity="0.16"/>
<stop offset="0.663462" stop-opacity="0.16"/>
<stop offset="1" stop-opacity="0"/>
</linearGradient>
<linearGradient id="paint23_linear_2163_1983" x1="1440" y1="320.5" x2="-2.24985e-08" y2="320.5" gradientUnits="userSpaceOnUse">
<stop stop-opacity="0"/>
<stop offset="0.322115" stop-opacity="0.16"/>
<stop offset="0.663462" stop-opacity="0.16"/>
<stop offset="1" stop-opacity="0"/>
</linearGradient>
<linearGradient id="paint24_linear_2163_1983" x1="1440" y1="40.5" x2="-2.24985e-08" y2="40.4999" gradientUnits="userSpaceOnUse">
<stop stop-opacity="0"/>
<stop offset="0.322115" stop-opacity="0.16"/>
<stop offset="0.663462" stop-opacity="0.16"/>
<stop offset="1" stop-opacity="0"/>
</linearGradient>
<linearGradient id="paint25_linear_2163_1983" x1="1440" y1="250.5" x2="-2.24985e-08" y2="250.5" gradientUnits="userSpaceOnUse">
<stop stop-opacity="0"/>
<stop offset="0.322115" stop-opacity="0.16"/>
<stop offset="0.663462" stop-opacity="0.16"/>
<stop offset="1" stop-opacity="0"/>
</linearGradient>
<linearGradient id="paint26_linear_2163_1983" x1="1440" y1="530.5" x2="-2.24985e-08" y2="530.5" gradientUnits="userSpaceOnUse">
<stop stop-opacity="0"/>
<stop offset="0.322115" stop-opacity="0.16"/>
<stop offset="0.663462" stop-opacity="0.16"/>
<stop offset="1" stop-opacity="0"/>
</linearGradient>
<linearGradient id="paint27_linear_2163_1983" x1="1440" y1="390.5" x2="-2.24985e-08" y2="390.5" gradientUnits="userSpaceOnUse">
<stop stop-opacity="0"/>
<stop offset="0.322115" stop-opacity="0.16"/>
<stop offset="0.663462" stop-opacity="0.16"/>
<stop offset="1" stop-opacity="0"/>
</linearGradient>
<linearGradient id="paint28_linear_2163_1983" x1="1440" y1="110.5" x2="-2.24985e-08" y2="110.5" gradientUnits="userSpaceOnUse">
<stop stop-opacity="0"/>
<stop offset="0.322115" stop-opacity="0.16"/>
<stop offset="0.663462" stop-opacity="0.16"/>
<stop offset="1" stop-opacity="0"/>
</linearGradient>
<linearGradient id="paint29_linear_2163_1983" x1="419.5" y1="600" x2="419.5" y2="-1.92881e-08" gradientUnits="userSpaceOnUse">
<stop stop-opacity="0"/>
<stop offset="0.322115" stop-opacity="0.16"/>
<stop offset="0.663462" stop-opacity="0.16"/>
<stop offset="1" stop-opacity="0"/>
</linearGradient>
<linearGradient id="paint30_linear_2163_1983" x1="959.5" y1="600" x2="959.5" y2="-1.92881e-08" gradientUnits="userSpaceOnUse">
<stop stop-opacity="0"/>
<stop offset="0.322115" stop-opacity="0.16"/>
<stop offset="0.663462" stop-opacity="0.16"/>
<stop offset="1" stop-opacity="0"/>
</linearGradient>
<linearGradient id="paint31_linear_2163_1983" x1="210" y1="180" x2="210" y2="256" gradientUnits="userSpaceOnUse">
<stop stop-color="#F4F4F3"/>
<stop offset="1" stop-color="#F4F4F3" stop-opacity="0"/>
</linearGradient>
<linearGradient id="paint32_linear_2163_1983" x1="30" y1="390" x2="30" y2="466" gradientUnits="userSpaceOnUse">
<stop stop-color="#F4F4F3"/>
<stop offset="1" stop-color="#F4F4F3" stop-opacity="0"/>
</linearGradient>
<linearGradient id="paint33_linear_2163_1983" x1="630" y1="110" x2="630" y2="186" gradientUnits="userSpaceOnUse">
<stop stop-color="#F4F4F3"/>
<stop offset="1" stop-color="#F4F4F3" stop-opacity="0"/>
</linearGradient>
<linearGradient id="paint34_linear_2163_1983" x1="1050" y1="250" x2="1050" y2="326" gradientUnits="userSpaceOnUse">
<stop stop-color="#F4F4F3"/>
<stop offset="1" stop-color="#F4F4F3" stop-opacity="0"/>
</linearGradient>
<linearGradient id="paint35_linear_2163_1983" x1="390" y1="460" x2="390" y2="536" gradientUnits="userSpaceOnUse">
<stop stop-color="#F4F4F3"/>
<stop offset="1" stop-color="#F4F4F3" stop-opacity="0"/>
</linearGradient>
<linearGradient id="paint36_linear_2163_1983" x1="810" y1="250" x2="810" y2="326" gradientUnits="userSpaceOnUse">
<stop stop-color="#F4F4F3"/>
<stop offset="1" stop-color="#F4F4F3" stop-opacity="0"/>
</linearGradient>
<linearGradient id="paint37_linear_2163_1983" x1="810" y1="460" x2="810" y2="536" gradientUnits="userSpaceOnUse">
<stop stop-color="#F4F4F3"/>
<stop offset="1" stop-color="#F4F4F3" stop-opacity="0"/>
</linearGradient>
<linearGradient id="paint38_linear_2163_1983" x1="1350" y1="40" x2="1350" y2="116" gradientUnits="userSpaceOnUse">
<stop stop-color="#F4F4F3"/>
<stop offset="1" stop-color="#F4F4F3" stop-opacity="0"/>
</linearGradient>
</defs>
</svg>
