<svg width="27" height="15" viewBox="0 0 27 15" fill="none" xmlns="http://www.w3.org/2000/svg">
<path d="M24.8178 8.29611H4.04188L7.93513 12.1849C9.05259 13.3023 7.3764 14.983 6.25893 13.8656L2.71433 10.3165L0.345304 7.94746C0.124212 7.72546 7.82013e-05 7.42491 7.82013e-05 7.11159C7.82013e-05 6.79828 0.124212 6.49773 0.345304 6.27573L6.2634 0.357632C6.37494 0.243227 6.50847 0.15257 6.65596 0.0911163C6.80344 0.029663 6.96184 -0.00131617 7.12161 4.28521e-05C7.35759 0.00066125 7.58801 0.0717486 7.78331 0.20419C7.97862 0.33663 8.12991 0.524388 8.2178 0.743388C8.30569 0.962388 8.32616 1.20265 8.27659 1.43336C8.22703 1.66407 8.10968 1.87472 7.9396 2.0383L4.03741 5.92708H24.8804C26.5208 6.01201 26.4001 8.37656 24.8178 8.29611Z" fill="black"/>
</svg>
