<svg width="59" height="59" viewBox="0 0 59 59" fill="none" xmlns="http://www.w3.org/2000/svg">
<rect width="59" height="59" rx="29.5" fill="url(#paint0_linear_1481_1610)"/>
<path d="M39.6545 17H18.2727C16.468 17 15 18.468 15 20.2727V33.3636C15 35.1683 16.468 36.6364 18.2727 36.6364H27.8727V38.8182H22.2V41H35.7273V38.8182H30.0545V36.6364H39.6545C41.4592 36.6364 42.9273 35.1683 42.9273 33.3636V20.2727C42.9273 18.468 41.4592 17 39.6545 17ZM40.7455 33.3636C40.7455 33.9651 40.256 34.4545 39.6545 34.4545H18.2727C17.6713 34.4545 17.1818 33.9651 17.1818 33.3636V20.2727C17.1818 19.6713 17.6713 19.1818 18.2727 19.1818H39.6545C40.256 19.1818 40.7455 19.6713 40.7455 20.2727V33.3636ZM27.2182 20.8248V23.0066C26.6167 23.0066 26.1273 23.496 26.1273 24.0975V24.643C26.1273 25.4806 25.8106 26.2452 25.2912 26.8248C25.8106 27.4043 26.1273 28.1691 26.1273 29.0066V29.5521C26.1273 30.1535 26.6167 30.643 27.2182 30.643V32.8248C25.4135 32.8248 23.9455 31.3567 23.9455 29.5521V29.0066C23.9455 28.4051 23.456 27.9157 22.8545 27.9157V25.7339C23.456 25.7339 23.9455 25.2444 23.9455 24.643V24.0975C23.9455 22.293 25.4135 20.8248 27.2182 20.8248ZM35.4 25.7339V27.9157C34.7985 27.9157 34.3091 28.4051 34.3091 29.0066V29.5521C34.3091 31.3567 32.8411 32.8248 31.0364 32.8248V30.643C31.6378 30.643 32.1273 30.1535 32.1273 29.5521V29.0066C32.1273 28.1691 32.4439 27.4043 32.9633 26.8248C32.4439 26.2452 32.1273 25.4806 32.1273 24.643V24.0975C32.1273 23.496 31.6378 23.0066 31.0364 23.0066V20.8248C32.8411 20.8248 34.3091 22.293 34.3091 24.0975V24.643C34.3091 25.2444 34.7985 25.7339 35.4 25.7339Z" fill="url(#paint1_linear_1481_1610)"/>
<defs>
<linearGradient id="paint0_linear_1481_1610" x1="29.5" y1="0" x2="29.5" y2="59" gradientUnits="userSpaceOnUse">
<stop stop-color="#383844"/>
<stop offset="1" stop-color="#353542"/>
</linearGradient>
<linearGradient id="paint1_linear_1481_1610" x1="28.9636" y1="17" x2="28.9636" y2="41" gradientUnits="userSpaceOnUse">
<stop stop-color="#FFB359"/>
<stop offset="1" stop-color="#E48C4F"/>
</linearGradient>
</defs>
</svg>
