<svg width="59" height="59" viewBox="0 0 59 59" fill="none" xmlns="http://www.w3.org/2000/svg">
<rect width="59" height="59" rx="29.5" fill="url(#paint0_linear_1481_1617)"/>
<path d="M25.1226 28.2542C25.2883 28.2544 25.4473 28.1885 25.5644 28.0714C25.6816 27.9542 25.7475 27.7952 25.7472 27.6296C25.7472 27.2845 26.0271 27.0047 26.3721 27.0047C26.7172 27.0047 26.997 27.2845 26.997 27.6296C26.997 27.9746 27.2767 28.2542 27.6217 28.2542C27.967 28.2542 28.2466 27.9746 28.2466 27.6296C28.2466 26.5942 27.4073 25.7551 26.3721 25.7551C25.337 25.7551 24.4977 26.5942 24.4977 27.6296C24.4977 27.7116 24.5138 27.7929 24.5452 27.8687C24.5766 27.9445 24.6226 28.0134 24.6807 28.0714C24.7387 28.1294 24.8076 28.1754 24.8834 28.2068C24.9593 28.2382 25.0405 28.2543 25.1226 28.2542ZM33.5905 32.3815C31.2571 33.548 27.7358 33.548 25.402 32.3815C25.0933 32.2271 24.7181 32.3522 24.5636 32.6609C24.4094 32.9696 24.5343 33.345 24.843 33.4993C26.2971 34.1852 27.8884 34.5307 29.4961 34.5097C31.1038 34.5307 32.6951 34.1851 34.1492 33.4993C34.4579 33.345 34.5831 32.9696 34.4288 32.6609C34.2744 32.3522 33.8991 32.2271 33.5905 32.3815V32.3815Z" fill="url(#paint1_linear_1481_1617)"/>
<path d="M40.118 27.0048H39.4931V25.1303C39.4915 23.4059 38.0937 22.008 36.3692 22.0064H34.4947V20.6415C35.3553 20.3375 35.8717 19.4572 35.7173 18.5575C35.5628 17.6576 34.7827 17 33.8698 17C32.9568 17 32.1768 17.6576 32.0224 18.5575C31.8679 19.4573 32.3844 20.3375 33.2449 20.6415V22.0064H25.7472V20.6415C26.608 20.3375 27.1242 19.4572 26.97 18.5575C26.8157 17.6576 26.0356 17 25.1226 17C24.2096 17 23.4294 17.6576 23.2752 18.5575C23.1208 19.4573 23.6369 20.3375 24.4977 20.6415V22.0064H22.6233C20.8987 22.0082 19.5012 23.4058 19.4993 25.1304V27.0048H18.8744C17.8397 27.006 17.0012 27.8446 17 28.8792V31.3785C17.0012 32.4132 17.8397 33.2518 18.8744 33.253H19.4993V35.7521C19.5012 37.4768 20.8987 38.8744 22.6233 38.8763H25.7472V41.3753C25.7473 41.4869 25.7773 41.5963 25.8339 41.6924C25.8906 41.7885 25.9719 41.8677 26.0694 41.9217C26.1669 41.9758 26.2771 42.0027 26.3886 41.9998C26.5 41.9968 26.6087 41.9641 26.7032 41.905L31.5499 38.8763H36.3692C38.0937 38.8746 39.4915 37.4769 39.4931 35.7521V33.253H40.118C41.1527 33.2518 41.9913 32.4132 41.9924 31.3785V28.8792C41.9913 27.8445 41.1527 27.0059 40.118 27.0048ZM33.8698 18.2576C34.2149 18.2576 34.4947 18.5372 34.4947 18.8823C34.4947 19.2275 34.2149 19.5072 33.8698 19.5072C33.5248 19.5072 33.2449 19.2275 33.2449 18.8823C33.2457 18.5377 33.5251 18.2583 33.8698 18.2576ZM25.1226 18.2576C25.4677 18.2576 25.7472 18.5372 25.7472 18.8823C25.7472 19.2275 25.4677 19.5072 25.1226 19.5072C24.7775 19.5072 24.4977 19.2275 24.4977 18.8823C24.4982 18.5374 24.7776 18.2581 25.1226 18.2576ZM18.8744 32.0032C18.5296 32.003 18.25 31.7233 18.2495 31.3785V28.8792C18.25 28.5343 18.5296 28.2548 18.8744 28.2543H19.4993V32.0031L18.8744 32.0032ZM38.2436 35.7521C38.2424 36.787 37.4038 37.6255 36.3692 37.6265H31.3705C31.2536 37.6265 31.139 37.6594 31.0399 37.7217L26.997 40.2477V38.2513C26.997 38.0856 26.9311 37.9267 26.8139 37.8095C26.6968 37.6923 26.5378 37.6265 26.3721 37.6264H22.6233C21.5886 37.6255 20.75 36.7869 20.7489 35.752V25.1303C20.75 24.0956 21.5886 23.2571 22.6233 23.2559H36.3692C37.4038 23.2571 38.2424 24.0956 38.2436 25.1303V35.7521ZM40.7427 31.3785C40.7422 31.7233 40.4628 32.0027 40.118 32.0032H39.4931V28.2543H40.118C40.4628 28.2551 40.7422 28.5344 40.7427 28.8792V31.3785Z" fill="url(#paint2_linear_1481_1617)"/>
<path d="M32.62 25.7551C31.5853 25.7563 30.7468 26.5949 30.7456 27.6296C30.7456 27.9746 31.0252 28.2542 31.3703 28.2542C31.7156 28.2542 31.9951 27.9746 31.9951 27.6296C31.9951 27.2845 32.275 27.0047 32.62 27.0047C32.965 27.0047 33.2447 27.2845 33.2447 27.6296C33.2447 27.9746 33.5246 28.2542 33.8696 28.2542C34.2146 28.2542 34.4945 27.9746 34.4945 27.6296C34.4933 26.5949 33.6547 25.7563 32.62 25.7551Z" fill="url(#paint3_linear_1481_1617)"/>
<defs>
<linearGradient id="paint0_linear_1481_1617" x1="29.5" y1="0" x2="29.5" y2="59" gradientUnits="userSpaceOnUse">
<stop stop-color="#383844"/>
<stop offset="1" stop-color="#353542"/>
</linearGradient>
<linearGradient id="paint1_linear_1481_1617" x1="29.4962" y1="25.7551" x2="29.4962" y2="34.5106" gradientUnits="userSpaceOnUse">
<stop stop-color="#99E6DF"/>
<stop offset="1" stop-color="#45BFB5"/>
</linearGradient>
<linearGradient id="paint2_linear_1481_1617" x1="29.4962" y1="17" x2="29.4962" y2="42" gradientUnits="userSpaceOnUse">
<stop stop-color="#99E6DF"/>
<stop offset="1" stop-color="#45BFB5"/>
</linearGradient>
<linearGradient id="paint3_linear_1481_1617" x1="32.62" y1="25.7551" x2="32.62" y2="28.2542" gradientUnits="userSpaceOnUse">
<stop stop-color="#99E6DF"/>
<stop offset="1" stop-color="#45BFB5"/>
</linearGradient>
</defs>
</svg>
