<svg width="59" height="59" viewBox="0 0 59 59" fill="none" xmlns="http://www.w3.org/2000/svg">
<rect width="59" height="59" rx="29.5" fill="url(#paint0_linear_1481_1604)"/>
<path d="M38.4219 33.0534C37.244 33.0534 36.2489 33.8484 35.942 34.9304H33.4531V32.1827H35.9944C38.7545 32.1827 41 29.9347 41 27.1716C41 24.9562 39.5322 23.01 37.4486 22.3761C36.8187 19.8513 34.5421 18.0405 31.9054 18.0405C30.8833 18.0405 29.9042 18.3044 29.0401 18.8085C28.1249 17.9707 26.925 17.5 25.6642 17.5C22.9598 17.5 20.7495 19.6582 20.6613 22.3443C18.5209 22.9432 17 24.905 17 27.1716C17 29.9347 19.2455 32.1827 22.0056 32.1827H24.5469V34.9304H22.058C21.7511 33.8484 20.756 33.0534 19.5781 33.0534C18.1565 33.0534 17 34.2112 17 35.6343C17 37.0574 18.1565 38.2152 19.5781 38.2152C20.756 38.2152 21.7511 37.4201 22.058 36.3382H25.25C25.6383 36.3382 25.9531 36.023 25.9531 35.6343V32.1827H28.2969V36.4365C27.2161 36.7437 26.4219 37.74 26.4219 38.9191C26.4219 40.3422 27.5784 41.5 29 41.5C30.4216 41.5 31.5781 40.3422 31.5781 38.9191C31.5781 37.74 30.7839 36.7438 29.7031 36.4365V32.1827H32.0469V35.6343C32.0469 36.023 32.3617 36.3382 32.75 36.3382H35.942C36.2489 37.4201 37.244 38.2152 38.4219 38.2152C39.8435 38.2152 41 37.0574 41 35.6343C41 34.2112 39.8435 33.0534 38.4219 33.0534ZM19.5781 36.8074C18.932 36.8074 18.4062 36.2811 18.4062 35.6343C18.4062 34.9874 18.932 34.4611 19.5781 34.4611C20.2243 34.4611 20.75 34.9874 20.75 35.6343C20.75 36.2811 20.2243 36.8074 19.5781 36.8074ZM30.1719 38.9191C30.1719 39.566 29.6462 40.0922 29 40.0922C28.3538 40.0922 27.8281 39.566 27.8281 38.9191C27.8281 38.2722 28.3538 37.7459 29 37.7459C29.6462 37.7459 30.1719 38.2722 30.1719 38.9191ZM22.0056 30.7749C20.021 30.7749 18.4062 29.1585 18.4062 27.1716C18.4062 25.3958 19.7285 23.863 21.4817 23.6064C21.8517 23.5522 22.1146 23.2176 22.0801 22.8449C22.0699 22.7339 22.0647 22.6225 22.0647 22.511C22.0647 20.5242 23.6795 18.9078 25.6641 18.9078C26.723 18.9078 27.7216 19.3686 28.4037 20.1721C28.6432 20.4542 29.06 20.5023 29.3574 20.2823C30.0949 19.7367 30.9759 19.4483 31.9054 19.4483C34.0442 19.4483 35.8228 21.0193 36.1553 23.063C36.1783 23.2041 36.2437 23.3349 36.3427 23.4379C36.4418 23.5409 36.5698 23.6113 36.7098 23.6397C38.3809 23.9783 39.5937 25.4637 39.5937 27.1716C39.5937 29.1585 37.979 30.7749 35.9943 30.7749H22.0056ZM38.4219 36.8074C37.7757 36.8074 37.25 36.2811 37.25 35.6343C37.25 34.9874 37.7757 34.4611 38.4219 34.4611C39.068 34.4611 39.5938 34.9874 39.5938 35.6343C39.5938 36.2811 39.068 36.8074 38.4219 36.8074Z" fill="url(#paint1_linear_1481_1604)"/>
<defs>
<linearGradient id="paint0_linear_1481_1604" x1="29.5" y1="0" x2="29.5" y2="59" gradientUnits="userSpaceOnUse">
<stop stop-color="#383844"/>
<stop offset="1" stop-color="#353542"/>
</linearGradient>
<linearGradient id="paint1_linear_1481_1604" x1="29" y1="17.5" x2="29" y2="41.5" gradientUnits="userSpaceOnUse">
<stop stop-color="#C1AFF7"/>
<stop offset="1" stop-color="#44BFB5"/>
</linearGradient>
</defs>
</svg>
