<svg width="59" height="59" viewBox="0 0 59 59" fill="none" xmlns="http://www.w3.org/2000/svg">
<rect width="59" height="59" rx="29.5" fill="url(#paint0_linear_1481_1639)"/>
<path d="M19.9127 34.8465L18.7204 36.3285L22.7179 40.3261L24.2014 39.113C24.9294 39.516 25.7012 39.8342 26.5017 40.0616L26.7061 42H30.2324V39.0215H33.3458C33.6493 39.8722 34.4545 40.4863 35.4082 40.4863C36.6198 40.4863 37.6055 39.5006 37.6055 38.2891C37.6055 37.0775 36.6197 36.0918 35.4082 36.0918C34.4545 36.0918 33.6493 36.706 33.3458 37.5566H30.2324V36.0918H29.5C25.8652 36.0918 22.9082 33.1348 22.9082 29.5C22.9082 25.8652 25.8652 22.9082 29.5 22.9082H30.2324V21.4434H33.3458C33.6493 22.294 34.4545 22.9082 35.4082 22.9082C36.6198 22.9082 37.6055 21.9225 37.6055 20.7109C37.6055 19.4994 36.6197 18.5137 35.4082 18.5137C34.4545 18.5137 33.6493 19.1278 33.3458 19.9785H30.2324V17H26.6397L26.4494 18.9542C25.6499 19.1848 24.8796 19.5064 24.1535 19.9127L22.6715 18.7204L18.6725 22.7179L19.887 24.2014C19.4842 24.9295 19.166 25.7012 18.9386 26.5017L17 26.7061V32.3602L18.9542 32.5506C19.1848 33.3501 19.5064 34.1204 19.9127 34.8465Z" fill="url(#paint1_linear_1481_1639)"/>
<path d="M39.8027 27.3027C38.8491 27.3027 38.0438 27.9169 37.7403 28.7676H28.0352V30.2324H37.7403C38.0438 31.0831 38.8491 31.6973 39.8027 31.6973C41.0143 31.6973 42 30.7115 42 29.5C42 28.2885 41.0143 27.3027 39.8027 27.3027Z" fill="url(#paint2_linear_1481_1639)"/>
<path d="M39.9713 21.4497C38.6839 21.3532 37.6055 22.3732 37.6055 23.6407C37.6055 23.7318 37.6215 23.8186 37.6323 23.9069L35.2351 25.1055H28.8938C26.3971 25.1055 24.373 27.1296 24.373 29.6263C24.373 31.9836 26.284 33.8946 28.6413 33.8946H35.2351L37.6324 35.0931C37.6215 35.1814 37.6055 35.2682 37.6055 35.3594C37.6055 36.6268 38.6839 37.6469 39.9713 37.5504C41.0458 37.4697 41.913 36.6024 41.9937 35.528C42.0902 34.2406 41.0702 33.1621 39.8027 33.1621C39.2118 33.1621 38.677 33.3992 38.2818 33.7799L35.5814 32.4297H28.7676C27.1496 32.4297 25.8379 31.118 25.8379 29.5C25.8379 27.882 27.1496 26.5703 28.7676 26.5703H35.5814L38.2818 25.2201C38.677 25.6009 39.2118 25.8379 39.8027 25.8379C41.0702 25.8379 42.0902 24.7595 41.9937 23.4721C41.913 22.3976 41.0458 21.5304 39.9713 21.4497Z" fill="url(#paint3_linear_1481_1639)"/>
<defs>
<linearGradient id="paint0_linear_1481_1639" x1="29.5" y1="0" x2="29.5" y2="59" gradientUnits="userSpaceOnUse">
<stop stop-color="#383844"/>
<stop offset="1" stop-color="#353542"/>
</linearGradient>
<linearGradient id="paint1_linear_1481_1639" x1="27.3027" y1="17" x2="27.3027" y2="42" gradientUnits="userSpaceOnUse">
<stop stop-color="#C7D2F6"/>
<stop offset="1" stop-color="#727FA6"/>
</linearGradient>
<linearGradient id="paint2_linear_1481_1639" x1="35.0176" y1="27.3027" x2="35.0176" y2="31.6973" gradientUnits="userSpaceOnUse">
<stop stop-color="#C7D2F6"/>
<stop offset="1" stop-color="#727FA6"/>
</linearGradient>
<linearGradient id="paint3_linear_1481_1639" x1="33.1865" y1="21.4434" x2="33.1865" y2="37.5567" gradientUnits="userSpaceOnUse">
<stop stop-color="#C7D2F6"/>
<stop offset="1" stop-color="#727FA6"/>
</linearGradient>
</defs>
</svg>
